<?xml version="1.0" encoding="UTF-8"?>
<svg id="Layer_2" data-name="Layer 2" xmlns="http://www.w3.org/2000/svg" xmlns:xlink="http://www.w3.org/1999/xlink" viewBox="0 0 1752.94 140.23">
  <defs>
    <style>
      .cls-1 {
        fill: url(#linear-gradient);
      }

      .cls-1, .cls-2, .cls-3, .cls-4, .cls-5 {
        opacity: .76;
      }

      .cls-6 {
        fill: url(#linear-gradient-8);
      }

      .cls-7 {
        fill: url(#linear-gradient-9);
      }

      .cls-8 {
        fill: url(#linear-gradient-3);
      }

      .cls-9 {
        fill: url(#linear-gradient-4);
      }

      .cls-10 {
        fill: url(#linear-gradient-2);
      }

      .cls-11 {
        fill: url(#linear-gradient-6);
      }

      .cls-12 {
        fill: url(#linear-gradient-7);
      }

      .cls-13 {
        fill: url(#linear-gradient-5);
      }

      .cls-3 {
        fill: url(#linear-gradient-24);
      }

      .cls-4 {
        fill: url(#linear-gradient-16);
      }

      .cls-5 {
        fill: url(#linear-gradient-23);
      }

      .cls-14 {
        fill: url(#linear-gradient-41);
      }

      .cls-15 {
        fill: url(#linear-gradient-40);
      }

      .cls-16 {
        fill: url(#linear-gradient-43);
      }

      .cls-17 {
        fill: url(#linear-gradient-42);
      }

      .cls-18 {
        fill: url(#linear-gradient-45);
      }

      .cls-19 {
        fill: url(#linear-gradient-46);
      }

      .cls-20 {
        fill: url(#linear-gradient-44);
      }

      .cls-21 {
        fill: url(#linear-gradient-14);
      }

      .cls-22 {
        fill: url(#linear-gradient-18);
      }

      .cls-23 {
        fill: url(#linear-gradient-22);
      }

      .cls-24 {
        fill: url(#linear-gradient-20);
      }

      .cls-25 {
        fill: url(#linear-gradient-21);
      }

      .cls-26 {
        fill: url(#linear-gradient-15);
      }

      .cls-27 {
        fill: url(#linear-gradient-19);
      }

      .cls-28 {
        fill: url(#linear-gradient-17);
      }

      .cls-29 {
        fill: url(#linear-gradient-13);
      }

      .cls-30 {
        fill: url(#linear-gradient-12);
      }

      .cls-31 {
        fill: url(#linear-gradient-10);
      }

      .cls-32 {
        fill: url(#linear-gradient-11);
      }

      .cls-33 {
        fill: url(#linear-gradient-27);
      }

      .cls-34 {
        fill: url(#linear-gradient-26);
      }

      .cls-35 {
        fill: url(#linear-gradient-38);
      }

      .cls-36 {
        fill: url(#linear-gradient-35);
      }

      .cls-37 {
        fill: url(#linear-gradient-37);
      }

      .cls-38 {
        fill: url(#linear-gradient-34);
      }

      .cls-39 {
        fill: url(#linear-gradient-39);
      }

      .cls-40 {
        fill: url(#linear-gradient-36);
      }

      .cls-41 {
        fill: url(#linear-gradient-25);
      }

      .cls-42 {
        fill: url(#linear-gradient-28);
      }

      .cls-43 {
        fill: url(#linear-gradient-29);
      }

      .cls-44 {
        fill: url(#linear-gradient-33);
      }

      .cls-45 {
        fill: url(#linear-gradient-30);
      }

      .cls-46 {
        fill: url(#linear-gradient-32);
      }

      .cls-47 {
        fill: url(#linear-gradient-31);
      }
    </style>
    <linearGradient id="linear-gradient" x1="1644.75" y1="70.11" x2="1752.94" y2="70.11" gradientUnits="userSpaceOnUse">
      <stop offset="0" stop-color="#ea9e6d"/>
      <stop offset=".33" stop-color="#e29881"/>
      <stop offset="1" stop-color="#d18cb7"/>
    </linearGradient>
    <linearGradient id="linear-gradient-2" x1="1467.67" y1="58.82" x2="1573.03" y2="58.82" xlink:href="#linear-gradient"/>
    <linearGradient id="linear-gradient-3" x1="1486.23" y1="70.11" x2="1585.72" y2="70.11" xlink:href="#linear-gradient"/>
    <linearGradient id="linear-gradient-4" x1="1467.51" y1="55.94" x2="1468" y2="55.94" xlink:href="#linear-gradient"/>
    <linearGradient id="linear-gradient-5" x1="1467.57" y1="62.06" x2="1467.99" y2="62.06" xlink:href="#linear-gradient"/>
    <linearGradient id="linear-gradient-6" x1="1504.95" y1="24.61" x2="1511.7" y2="24.61" xlink:href="#linear-gradient"/>
    <linearGradient id="linear-gradient-7" x1="1334.81" y1="56.74" x2="1388.22" y2="56.74" xlink:href="#linear-gradient"/>
    <linearGradient id="linear-gradient-8" x1="1312.98" y1="121.46" x2="1408.48" y2="121.46" xlink:href="#linear-gradient"/>
    <linearGradient id="linear-gradient-9" x1="1322.84" y1="80.56" x2="1346.69" y2="80.56" xlink:href="#linear-gradient"/>
    <linearGradient id="linear-gradient-10" x1="1325.85" y1="112.02" x2="1343.89" y2="112.02" xlink:href="#linear-gradient"/>
    <linearGradient id="linear-gradient-11" x1="1345.98" y1="58.86" x2="1361.31" y2="58.86" xlink:href="#linear-gradient"/>
    <linearGradient id="linear-gradient-12" x1="1326.98" y1="17.87" x2="1355.57" y2="17.87" xlink:href="#linear-gradient"/>
    <linearGradient id="linear-gradient-13" x1="1371.8" y1="95.89" x2="1391.61" y2="95.89" xlink:href="#linear-gradient"/>
    <linearGradient id="linear-gradient-14" x1="1367.8" y1="115.18" x2="1368.01" y2="115.18" xlink:href="#linear-gradient"/>
    <linearGradient id="linear-gradient-15" x1="1367.77" y1="112.26" x2="1368.21" y2="112.26" xlink:href="#linear-gradient"/>
    <linearGradient id="linear-gradient-16" x1="1131.49" y1="70.11" x2="1253.95" y2="70.11" xlink:href="#linear-gradient"/>
    <linearGradient id="linear-gradient-17" x1="975" y1="35.05" x2="1036.77" y2="35.05" xlink:href="#linear-gradient"/>
    <linearGradient id="linear-gradient-18" x1="1010.53" y1="105.21" x2="1072.46" y2="105.21" xlink:href="#linear-gradient"/>
    <linearGradient id="linear-gradient-19" x1="943.48" y1="105.5" x2="1005.88" y2="105.5" xlink:href="#linear-gradient"/>
    <linearGradient id="linear-gradient-20" x1="994.53" y1="35.05" x2="1017.24" y2="35.05" xlink:href="#linear-gradient"/>
    <linearGradient id="linear-gradient-21" x1="965.35" y1="102.49" x2="983.97" y2="102.49" xlink:href="#linear-gradient"/>
    <linearGradient id="linear-gradient-22" x1="1031.74" y1="103.87" x2="1051.25" y2="103.87" xlink:href="#linear-gradient"/>
    <linearGradient id="linear-gradient-23" x1="551.11" y1="70.11" x2="714.09" y2="70.11" xlink:href="#linear-gradient"/>
    <linearGradient id="linear-gradient-24" x1="773.12" y1="70.11" x2="884.45" y2="70.11" xlink:href="#linear-gradient"/>
    <linearGradient id="linear-gradient-25" x1="374.83" y1="57.35" x2="492.08" y2="57.35" xlink:href="#linear-gradient"/>
    <linearGradient id="linear-gradient-26" x1="373.56" y1="118.49" x2="491.73" y2="118.49" xlink:href="#linear-gradient"/>
    <linearGradient id="linear-gradient-27" x1="416.75" y1="8.99" x2="448.34" y2="8.99" xlink:href="#linear-gradient"/>
    <linearGradient id="linear-gradient-28" x1="444.94" y1="72.42" x2="446.84" y2="72.42" xlink:href="#linear-gradient"/>
    <linearGradient id="linear-gradient-29" x1="439.94" y1="62.7" x2="441.33" y2="62.7" xlink:href="#linear-gradient"/>
    <linearGradient id="linear-gradient-30" x1="439.94" y1="88.82" x2="441.27" y2="88.82" xlink:href="#linear-gradient"/>
    <linearGradient id="linear-gradient-31" x1="425.46" y1="88.85" x2="426.82" y2="88.85" xlink:href="#linear-gradient"/>
    <linearGradient id="linear-gradient-32" x1="418.33" y1="88.96" x2="419.88" y2="88.96" xlink:href="#linear-gradient"/>
    <linearGradient id="linear-gradient-33" x1="405.53" y1="88.82" x2="406.85" y2="88.82" xlink:href="#linear-gradient"/>
    <linearGradient id="linear-gradient-34" x1="405.31" y1="70.91" x2="406.81" y2="70.91" xlink:href="#linear-gradient"/>
    <linearGradient id="linear-gradient-35" x1="425.48" y1="62.72" x2="426.83" y2="62.72" xlink:href="#linear-gradient"/>
    <linearGradient id="linear-gradient-36" x1="0" y1="71.68" x2="127.23" y2="71.68" xlink:href="#linear-gradient"/>
    <linearGradient id="linear-gradient-37" x1="26.29" y1="71.68" x2="80.09" y2="71.68" xlink:href="#linear-gradient"/>
    <linearGradient id="linear-gradient-38" x1="32.93" y1="71.68" x2="89.56" y2="71.68" xlink:href="#linear-gradient"/>
    <linearGradient id="linear-gradient-39" x1="182.95" y1="70.11" x2="314.53" y2="70.11" xlink:href="#linear-gradient"/>
    <linearGradient id="linear-gradient-40" x1="261.36" y1="108.94" x2="262.9" y2="108.94" xlink:href="#linear-gradient"/>
    <linearGradient id="linear-gradient-41" x1="187.78" y1="100.05" x2="189.62" y2="100.05" xlink:href="#linear-gradient"/>
    <linearGradient id="linear-gradient-42" x1="216.08" y1="100.08" x2="217.92" y2="100.08" xlink:href="#linear-gradient"/>
    <linearGradient id="linear-gradient-43" x1="221.08" y1="100.04" x2="222.92" y2="100.04" xlink:href="#linear-gradient"/>
    <linearGradient id="linear-gradient-44" x1="234.4" y1="100.18" x2="235.91" y2="100.18" xlink:href="#linear-gradient"/>
    <linearGradient id="linear-gradient-45" x1="261.7" y1="100.35" x2="262.92" y2="100.35" xlink:href="#linear-gradient"/>
    <linearGradient id="linear-gradient-46" x1="196.58" y1="23.67" x2="300.69" y2="23.67" xlink:href="#linear-gradient"/>
  </defs>
  <g id="Layer_1-2" data-name="Layer 1">
    <g>
      <path class="cls-1" d="m1752.6,117.37c-.61,2.48.67,5.18-1.41,7.6-1.24,1.44-2.37,1.94-4.13,2.32-12.27,2.65-24.8,3.63-37.15,5.77-14.08,2.44-28.29,4.05-42.44,6.07-10,1.43-18.62-4.98-22.22-11.61-.54-.99-.48-1.88-.48-2.81-.03-35.69-.04-71.38-.02-107.07,0-3.85,1.43-5.01,5.3-5.52,7.99-1.05,15.94-2.34,23.91-3.52,6.94-1.03,13.88-2.07,20.83-3.07,8.21-1.18,16.42-2.32,24.63-3.5,2.14-.31,4.27-.71,6.41-1.06,2.81-.47,4.06,1,4.32,3.57.1.98.02,1.98.02,2.97,0,33.49.02,66.97.03,100.46-.04.26-.08.52-.12.78.1,6.05-.45,5.59-8.76,7.11-7.53,1.38-15.16,2.26-22.74,3.38-6.24.93-12.52,1.71-18.77,2.62-9.52,1.39-19.06,2.7-28.6,3.98-1.41.19-1.29.79-.9,1.75,1.64,4.13,10.41,9.17,14.93,8.02,5.29-1.35,10.83-1.7,16.25-2.49,5.4-.79,10.85-1.19,16.12-2.87,3.41-1.08,7.1-.17,10.64-1.03,4.39-1.07,8.87-1.76,13.33-2.48,5.21-.85,10.34-2.26,15.68-2.2,1.41.02,2.73-.25,4.11-.57,3.52-.83,4.76-2.87,4.75-6.34-.07-22.57-.03-45.14-.04-67.7,0-9.14-.2-18.28.09-27.41.11-3.41-1.06-4.84-4.16-5.74-2.6-.75-5.53-1.12-7.69-3.82,5.45-.26,10.7-.51,15.94-.75,1.34-.06,1.97.76,2.3,1.92.11.29.21.59.32.88.01,33.83.02,67.66.03,101.49-.11.29-.22.58-.33.87Zm-89.88-65.9c0,4.4-.05,8.81.02,13.21.05,3.2,1.5,4.61,4.67,4.33,2.9-.26,5.75-.91,8.64-1.29,8.42-1.12,16.86-2.09,25.25-3.37,2.35-.36,4.3-2.05,4.34-4.69.12-8.91.1-17.83.03-26.74-.02-2.33-1.35-3.69-3.82-3.51-2.82.21-5.69.22-8.43.81-8.36,1.81-16.86,2.56-25.3,3.71-3.73.51-5.37,1.93-5.39,5.67-.02,3.96,0,7.92,0,11.89Z"/>
      <g class="cls-2">
        <path class="cls-10" d="m1467.83,55.05c1.5-25.8,22.51-47.03,48.99-48.98.62.22,1.23.24,1.81-.15,1.34,0,2.69.02,4.03.02.75.42,1.53.38,2.33.2,3.41,1.12,7.01,1.08,10.5,2.12,15.73,4.68,26.59,14.7,33.35,29.4,2.49,5.42,3.5,11.2,3.99,17.2.58,7.05-.13,13.88-2.35,20.46-3.26,9.64-8.4,17.98-17.04,24.05-3.74,2.63-7.32,5.51-11.44,7.48-8.64,4.15-17.94,5.63-27.32,4.5-10.5-1.26-20.03-5.26-28.34-12.22-7.96-6.68-12.99-15.14-16.36-24.69-1.31-3.72-2.11-7.7-2.14-11.74.2-.45.19-.87-.1-1.28-.03-1.53-.06-3.05-.09-4.58.43-.56.39-1.17.17-1.79Zm35.76-40.16c-3.64-.1-5.89,1.95-8.43,3.29-2.82,1.5-5.41,3.31-7.59,5.7-1.16,1.27-.62,2.47.59,2.6,3.71.38,2.52,2.58,1.72,4.37-1.8,4.02-1.62,7.67.27,11.75,1.53,3.29,4.06,6.29,3.95,10.34-.03,1.21.96,2.63,2.51,2.77,4.7.44,8.1,2.97,11,6.46.4.48.93,1.28,1.77.74.7-.45.51-1.28.52-1.98.02-.93-.67-1.43-1.32-1.9-1.33-.97-3.43-1.46-1.81-3.9.45-.68-.34-1.32-1.1-1.5-.79-.18-1.56.01-2.36.18-1.82.39-3.7.43-4.1-1.99-.4-2.38.69-3.61,2.97-3.77.31-.02.75-.23.87-.47,1.7-3.35,3.16-1.04,4.65.18.71.58,1.08,1.91,2.32,1.31,1.15-.55,1.03-1.68,1-2.8-.1-3.6,3.69-8.66,7.11-9.36,2.04-.42,2.64-1.08.99-2.67-1.42-1.37-.45-1.99.73-2.52.72-.32,1.56-.4,2.24-.77,1.65-.89,1.86-2.04.34-3.29-1.6-1.32-4.45-1.89-2.94-5.06.11-.23-.36-.75-.58-1.13-.97-1.65-.31-2.24,1.41-2.32,2.08-.1,2.96,1.51,4.18,2.69,1.84,1.79,3.12,1.62,3.96-.48,1.13-2.81.05-7.69-2-9.06-2.9-1.94-6.93-1.62-9.65.68-.67.56-1.5.97-2.31,1.31-3.72,1.56-7.56,1.4-10.92.62Zm19.58,48.81c-3.64,0-6.05,1.66-7.43,4.89-.77,1.8-1.1,3.79-2.27,5.41-1.15,1.58-.99,3.19-.52,5,.79,3.03,2.84,4.64,5.58,5.61,2.14.77,3.05,2.47,2.55,4.42-.85,3.31-.81,6.77-2.1,10.01-.6,1.51.49,3.49-.83,5.04-.06.07.3.61.56.84.63.57,1.38.87,2.21.48,1.04-.5.78-1.49.8-2.36.07-3.26,2.53-7.29,4.84-7.63,2.16-.32,3.86-1.33,5.2-2.96,1.43-1.73,2.96-3.33,4.97-4.41,1.02-.55,1.65-1.46,1.61-2.55-.07-1.61.64-2.79,1.4-4.12,1.71-2.95,1.07-5.28-2.11-6.21-2.63-.77-4.5-1.78-5.53-4.4-.35-.89-1.29-1.8-2.37-2.06-1.92-.47-2.97-1.84-3.77-3.43-.66-1.31-1.55-1.89-2.78-1.56Zm42.07-16.3c.14-1,.23-2.56-1.65-2.95-1.94-.4-3.73-.13-4.59,2.11-.89,2.33-1.87,4.62-3.18,6.77-.71,1.16-.6,2.52.56,3.37,1.7,1.24,1.49,2.51.64,4.16-2.07,4.01-.7,6.67,3.69,7.07,2.25.2,2.98,1.44,2.87,3.36-.08,1.48-.41,2.94-1.57,4.09-2.05,2.04-3.14,4.45-2.72,7.44.14.97.06,1.93-.62,2.79-.79.99-2.44,2.34-1.05,3.32,1.37.97,2.35-1.01,3.13-2.05,4.04-5.43,6.24-11.63,7.8-18.18,1.27-5.32,1.51-10.24-1.85-14.98-1.15-1.61-1.62-3.73-1.45-6.32Zm-2.68-10.74c-.19-3.2-1.95-6.73-4.35-7.68-1.62-.64-2.61-1.76-3.58-3.04-.53-.7-1.09-1.41-1.73-2.01-.63-.59-1.46-.75-2.2-.19-.8.6-.49,1.25-.14,2.08.75,1.77,1.72,3.34,3.29,4.43,2.45,1.7,2.65,3.95,1.97,6.58-.28,1.09-.31,2.27-.31,3.41,0,.97.56,1.78,1.54,1.91.99.14.96-.84,1.15-1.48.33-1.06.51-1.79,2.12-1.26,1.75.58,2.73-.47,2.23-2.75Zm-24.87-18.24c.54,2.44,2.06,2.97,3.56,3.36.9.23,1.93.3,1.99-1.27.05-1.34-.67-1.38-1.63-1.4-1.19-.02-2.39.18-3.92-.69Zm-.71,9.88c-1.69-.43-2.04.75-2.23,1.91-.14.87.53,1.36,1.32,1.17,1.21-.28,2.79-.29,2.82-2.12.02-1.52-1.23-.78-1.92-.96Z"/>
        <path class="cls-8" d="m1519.83,139.39c-5.1,0-10.19.1-15.28-.05-1.97-.06-4.01-.37-5.86-1.25-2.71-1.29-3-3.04-.83-5.17,1.61-1.58,3.63-2.58,5.61-3.61,2.3-1.19,4.62-2.34,6.89-3.57.6-.32,1.4-.75,1.09-1.62-.22-.61-.92-.71-1.56-.84-6.29-1.21-12.39-3-18.14-5.87-1.62-.81-3.19-1.7-4.21-3.21-.71-1.05-1.84-2.25-1.04-3.56.87-1.43,2.08-2.63,4.09-2.52,1.67.09,3.13.69,4.56,1.42,6.37,3.24,13.12,5.07,20.24,5.73,16.54,1.55,30.88-3.6,43.08-14.53,9.37-8.39,15.7-18.85,17.7-31.4,1.22-7.67,1.23-15.36-.57-23.17-3.73-16.21-13.02-28.04-26.88-36.66-1.69-1.05-3.12-2.34-4.28-3.98-1.32-1.88-.73-4.27,1.43-4.52,2.07-.25,4.26-.57,6.29.57,15.99,8.99,26.44,22.35,31.26,40.02,1.46,5.34,2.34,10.83,2.3,16.42-.09,14.4-4,27.57-12.56,39.25-8.68,11.84-20.24,19.73-34.08,24.31-2.81.93-5.83,1.24-8.77,1.73-.69.11-1.19.27-1.44.9-.3.75.21,1.34.73,1.54,2.26.86,3.77,2.85,6.19,3.62,2.85.91,4.73,3.42,6.14,5.98.65,1.18-.18,2.48-1.7,2.96-1.93.61-3.84,1.19-5.91,1.17-4.83-.06-9.66-.02-14.48-.02,0-.02,0-.04,0-.06Z"/>
        <path class="cls-9" d="m1467.83,55.05c.22.62.27,1.23-.17,1.79-.21-.62-.27-1.23.17-1.79Z"/>
        <path class="cls-13" d="m1467.76,61.42c.28.41.29.84.1,1.28-.36-.4-.38-.83-.1-1.28Z"/>
        <path class="cls-11" d="m1511.7,24.23c-.79,1.6-1.74,2.62-2.74,3.6-.11.11-.33.1-.5.15-.38-1.9-2.41-2.17-3.38-3.44-.4-.53.13-1.34.92-1.62.57-.21,1.18-.35,1.71-.62.75-.38,1.49-1.52,2.28-.86.84.71.45,2.29,1.7,2.79Z"/>
      </g>
      <g class="cls-2">
        <path class="cls-12" d="m1353.8,47.57c-1.81.72-4.05.13-5.67,1.6-1.43,1.3-2.18,1.01-3.05-.74-3.15-6.31-6.42-12.56-9.79-18.75-.88-1.62-.54-2.23,1-3,4.93-2.45,9.8-5.02,14.65-7.63,1.68-.91,2.59-.84,3.58,1.07,11.01,21.27,22.09,42.51,33.24,63.7.88,1.68.5,2.22-1,2.97-4.92,2.46-9.8,5.02-14.64,7.64-1.7.92-2.64.82-3.6-1.08-3.6-7.16-7.33-14.26-11.12-21.32-.89-1.65-.84-2.27,1.07-3.04,3.86-1.56,5.95-4.64,6.36-8.83.49-5.02-1.31-8.79-5.74-11.39-1.69-.99-3.62-.34-5.29-1.21Z"/>
        <path class="cls-6" d="m1367.98,114.78c0-.72,0-1.44,0-2.17.08-.23.16-.47.23-.7,9.96-.04,19.93-.05,29.89-.17,1.66-.02,1.69.76,1.55,1.93-.23,1.96.24,3.28,2.61,2.93,1.03-.15,1.58.6,2.16,1.23,3.1,3.36,4.38,7.32,3.99,11.88-.1,1.18-.53,1.51-1.58,1.41-.48-.04-.97,0-1.45,0-29.81,0-59.62-.04-89.43.06-2.46,0-3.12-.62-2.95-3.01.45-5.96,3.75-10.1,8.22-13.55.74-.57,1.61-.73,1.87.62.07.37.25.73.39,1.09,1.62,4.15,4.57,7.05,8.94,7.77,5.34.88,10.09-.65,12.97-5.58,1-1.72,2.05-2.15,3.87-2.12,5.42.1,10.84.06,16.26.02.87,0,2.01.5,2.49-.82,0-.27-.02-.54-.03-.81Z"/>
        <path class="cls-7" d="m1342.6,57.96c-.04,3.59,1.01,6.62,3.55,8.98.81.76.65,1.14-.12,1.77-7.95,6.52-11.52,14.95-10.89,25.19.04.58-.21,1.31.06,1.71,2.18,3.22.79,4.35-2.49,4.47-2.36.09-4.27,1.25-6.03,2.65-.89.7-1.04.48-1.58-.43-1.42-2.37-1.78-5.11-2.03-7.6-1.5-14.8,4.68-28.31,18.36-36.31.31-.18.69-.26,1.18-.44Z"/>
        <path class="cls-31" d="m1334.68,120.67c-4.74.04-8.72-3.82-8.83-8.56-.1-4.48,4.25-9.02,8.89-8.86,5.67.2,8.77,3.33,9.13,8.96.27,4.19-3.91,9.43-9.19,8.46Z"/>
        <path class="cls-32" d="m1361.31,58.78c0,4.84-2.89,7.59-7.51,7.98-3.56.3-8.1-4.24-7.8-7.87.36-4.37,3.54-7.98,7.78-7.94,4.61.04,7.53,3.08,7.54,7.83Z"/>
        <path class="cls-30" d="m1352.58,9.11c1.41-.2,2.65.11,2.88,1.66.23,1.52.24,3.11-1.52,3.99-3.1,1.57-6.17,3.19-9.25,4.8-4.02,2.1-8.05,4.19-12.06,6.29-1.99,1.04-3.98,1.46-5.22-.93-1.17-2.26.24-3.6,2.14-4.59,6.76-3.52,13.52-7.05,20.28-10.58.87-.45,1.74-.85,2.74-.65Z"/>
        <path class="cls-29" d="m1371.8,98.4c.11-1.12,1.73-2.04,3.29-2.86,3.68-1.93,7.46-3.68,11.16-5.57,1.98-1.01,3.79-1.17,4.92,1.04,1.13,2.21-.06,3.58-2.04,4.59-4.17,2.13-8.28,4.38-12.47,6.47-2.5,1.25-4.95-.16-4.86-3.67Z"/>
        <path class="cls-21" d="m1367.98,114.78c0,.27.02.54.03.81-.27-.26-.27-.53-.03-.81Z"/>
        <path class="cls-26" d="m1368.21,111.91c-.08.23-.16.47-.23.7-.34-.37-.25-.6.23-.7Z"/>
      </g>
      <path class="cls-4" d="m1245.48,17.85c-8.49.02-11.71,4.07-10.15,11.64,1.08,5.24-2.16,6.72-6.03,8.06-16.85,5.83-33.69,11.69-50.53,17.55-4.66,1.62-6.89,4.26-6.7,9.85.5,14.74-.21,29.53.22,44.27.44,15.03-13.6,27.9-28.01,30.82-4.64.94-8.07-2.14-10.71-5.53-4.05-5.21-1.37-10.5.87-15.33,4.51-9.74,11.35-16.76,22.71-18.5,4.4-.68,7.1-2.93,6.89-8.79-.64-18.38-.19-36.8-.45-55.2-.07-4.68.77-7.57,5.83-9.32,25.16-8.7,50.13-17.96,75.29-26.65,5.18-1.79,9.28-.57,9.21,6.72-.24,24.98.17,49.96-.19,74.94-.2,13.3-15.42,28.28-28.18,28.8-9.38.38-14.84-6.38-11.8-15.27,4.59-13.42,12.53-23.36,28.11-23.88,3.22-.11,3.65-1.42,3.64-4.1-.08-16.7-.04-33.4-.04-50.1Z"/>
      <g class="cls-2">
        <path class="cls-28" d="m1000.68,66.34c-.65-.01-1.31-.03-1.96-.04-7.28-1.53-14.66-.25-21.98-.72-.53-.59-1.06-1.17-1.59-1.76-.05-.52-.1-1.03-.16-1.55.05-17.12.27-34.23.06-51.35-.06-5.17,1.42-7.23,6.83-7.14,15.69.26,31.38.2,47.08.04,5.3-.05,7.86,1.77,7.8,7.4-.18,15.92-.11,31.85-.03,47.77.01,2.73-.16,5.19-2.69,6.82-11.12.22-22.26-1.1-33.36.53Zm7.64-8.71c6.15.03,12.3.07,18.44.1,1.1.36,1.46-.11,1.28-1.16.07-13.31.03-26.63.28-39.94.06-3.4-.88-4.47-4.35-4.39-13.3.29-26.62.28-39.92.38-2.48,1.12-1.21,3.32-1.23,4.96-.13,11.39-.14,22.79,0,34.18.02,1.91-1.2,4.32,1.3,5.74,7.54.07,15.09.14,22.63.2.52-.03,1.04-.06,1.57-.08Z"/>
        <path class="cls-22" d="m1010.63,131.9c-.03-14.72-.05-29.44-.08-44.17,0-.53-.01-1.05-.02-1.58.96-3.81-1.24-8.11,1.77-11.61,19.53-.12,39.06-.74,58.57.4,1.22,1.53,1.56,3.24,1.55,5.22-.08,16.66-.14,33.32.02,49.98.04,4.27-1.45,6.03-5.76,6.01-16.9-.11-33.8-.05-50.7-.03-2.26,0-4.23-.38-5.28-2.68-.03-.51-.06-1.03-.09-1.54Zm51.7-49.66c-14.24.08-28.48.17-42.72.25-.36.14-.72.28-1.08.42l.38.55c-.04.9-.08,1.8-.12,2.7,0,.52-.01,1.04-.02,1.56l.05,4.19c-.2,5.91-.8,11.83-.47,17.71.33,5.91-1.53,12.01,1.27,17.75,13.5.1,27,.14,40.5.35,2.9.05,4.23-.53,4.16-3.85-.3-13.49-.34-26.99-.47-40.49.15-1.21-.47-1.41-1.47-1.14Z"/>
        <path class="cls-27" d="m944.01,76.43c.62-.59,1.24-1.19,1.85-1.78,19.1-.03,38.2-.07,57.3-.1,2.96,1.81,2.66,4.71,2.65,7.59-.03,15.46-.12,30.91.06,46.37.06,5.23-1.54,8.01-7.25,7.96-16.65-.15-33.3-.09-49.95-.06-2.14,0-4.36.4-4.72-2.66-.46-11.44,1.16-22.9-.43-34.33-.02-2.42-.04-4.83-.06-7.25,1.24-5.21.36-10.49.53-15.73Zm53.16,7.26c.18-1.05-.17-1.52-1.27-1.16-14.24.04-28.49.07-42.73.11-.98-.26-1.35.1-1.1,1.08-.02,11.86-.04,23.72-.06,35.58,0,.52-.01,1.04-.02,1.56,0,1.86,0,3.72.01,5.58-.39,1.1.09,1.43,1.13,1.28,13.32.07,26.64.02,39.96.28,3.43.07,4.44-.92,4.38-4.36-.25-13.31-.22-26.64-.29-39.95Z"/>
        <path class="cls-24" d="m1007.78,24.58h-3.83l-9.43,20.95h4.01l2.07-4.85h10.48l2.09,4.85h4.07l-9.46-20.95Zm-5.87,13.05l3.92-9.16,3.95,9.16h-7.87Z"/>
        <path class="cls-25" d="m980.2,102.07c1.62-.87,2.69-2.45,2.69-4.61,0-3.32-2.69-5.45-7.72-5.45h-9.82v20.95h10.42c5.39,0,8.2-2.09,8.2-5.69,0-2.72-1.53-4.49-3.77-5.21Zm-10.95-7h5.51c2.69,0,4.22.96,4.22,2.9s-1.53,2.87-4.22,2.87h-5.51v-5.78Zm6.29,14.84h-6.29v-6.05h6.29c2.93,0,4.52.93,4.52,3.02s-1.59,3.02-4.52,3.02Z"/>
        <path class="cls-23" d="m1031.74,103.86c0-6.25,4.79-10.77,11.22-10.77,3.41,0,6.35,1.23,8.29,3.5l-2.51,2.36c-1.53-1.65-3.41-2.45-5.6-2.45-4.34,0-7.48,3.05-7.48,7.36s3.14,7.36,7.48,7.36c2.18,0,4.07-.81,5.6-2.48l2.51,2.39c-1.95,2.27-4.88,3.5-8.32,3.5-6.4,0-11.19-4.52-11.19-10.78Z"/>
      </g>
      <path class="cls-5" d="m621.32,10.99c7.45-3.41,15.25-1.15,22.88-1.2,1.48-.01,2.78,2.36,3,4.39.65,3.05,2.72,1.68,4.43,1.43,13.26,0,26.53,0,39.79-.01.61.03,1.22.07,1.82.1,4.44,2.79,5.14,8.37,1.91,10.25-6.94,4.05-2.65,7.23-.28,10.14,5.89,7.21,9.77,15.68,16.96,22.28,4.95,4.54.77,12.49-3.13,17.66-8.91,11.81-21.13,17.51-35.77,14.57-14.33-2.87-22.26-13.18-25.98-26.9-.56-2.06-1.08-5.54,1.3-5.62,10.1-.35,11.98-9.23,16.36-15.22,3.08-4.21,6.91-8.16,8.28-13.49.04-.27.18-.59.09-.8-.07-.16-.44-.29-.67-.27-8.4.59-16.94-1.59-25.23,1.24-.64,3.27-3.09,5.1-5.54,6.93-.27-.05-.59-.19-.8-.1-.16.07-.26.45-.26.69-.03,18.96-.15,37.92.02,56.88.04,3.94-1.45,8.15,1.15,11.87,0,0,.05.05.05.05,9.87,2.88,19.93.62,29.89,1.14,6.78,6.46,14.21,12.51,14.98,22.9-30.14-.04-60.27-.1-90.41-.1-2.13,0-4.45-.61-6.34,1.06-3.07-.47-7.19,1.83-9-1.72-1.86-3.63,1.9-6.08,3.73-8.84,3.34-5.03,5.45-11.15,11.97-13.32,9.88-.49,19.86,1.63,29.66-1.14.18-21.95.27-43.91.61-65.86.09-5.46-7.75-4.98-7.15-10.48-8.04-2.01-16.08-2.13-24.11.08,6.19,10.1,10.79,21.42,21.35,28.19,2.51,1.61,1.48,4.05,1.21,5.9-2.17,14.9-15.9,26.4-31.15,27.5-18.81,1.35-30.52-11.66-34.98-25.12-1.12-3.37-2.51-8.99,5.22-8.83,1.91.04,4.22-3.3,5.77-5.49,4.98-7.03,9.69-14.26,14.49-21.39-8.62-3.39-9.95-7.89-4.22-14.53.6-.05,1.2-.11,1.81-.16,14.89-.05,29.78-.1,44.68-.16,3.02-.61,1.57-2.79,1.58-4.46Zm-51.36,44.99c-.23.33-.46.65-.68.98.82.09,1.64.18,2.46.27,10.46-.05,20.92-.1,31.39-.16.44-.08.89-.16,1.33-.24-.37-.31-.74-.62-1.11-.93-4.56-6.91-9.13-13.82-13.68-20.74-1.68-2.56-3.63-3.68-5.67-.54-4.64,7.15-10.89,13.24-14.04,21.37Zm128.09,1.27c.59-.23,1.17-.47,1.76-.7-.51-.79-1.03-1.58-1.54-2.37-4.52-6.37-9.4-12.53-13.42-19.21-2.3-3.82-3.88-3.44-5.88-.44-4.29,6.46-8.37,13.06-12.54,19.61-.5.79-1,1.57-1.49,2.36.59.23,1.17.47,1.76.7,10.45.02,20.91.04,31.36.06Zm-93.17,9.15c-13.26,0-26.53.02-39.79.02-.99-.4-1.99-.79-2.8.28-.05.07.58.64.89.98,4.75,11.17,13.54,14.83,25.01,13.26,8.39-1.15,15.49-4.22,18.22-13.24.12-1.17-.25-1.77-1.53-1.3Zm96.84,3.22c1.08-.46,1.63-1.34,1.3-2.41-.12-.39-1.08-.52-1.66-.77-13.78,0-27.56-.02-41.33-.02-.55.23-1.1.46-1.66.7l1.43,2.33c3.14,8.69,10.68,12.52,18.58,12.79,9.45.32,18.31-3.34,23.34-12.62Z"/>
      <path class="cls-3" d="m783.72,138.1c2.82-1.07,5.64-2.15,8.91-3.39-6.86-2.3-12.79,2.82-19.51.5,9.28-9.83,9.76-21.27,6.63-33.5-2.61-10.16,8.92-23.46,21.47-24.04,6.34-.29,9.62-1.33,13.68-7.68,9.33-14.6,21.39-27.45,32.32-41.03,6.31-7.85,12.59-15.72,18.84-23.61,2.99-3.78,5.96-6.5,10.95-2.62,8.15,6.34,9.16,9.42,4.59,15.13-17.5,21.84-34.59,44.02-52.68,65.35-4.25,5.01-5.69,8.42-4.78,15.02,2.06,14.83-9.12,22.08-19.63,29.18-1.28.87-2.76,1.45-4.25,2.21,1.05,2.68,3.29,1.25,4.89,1.26,24.12.06,48.25-.08,72.37.11,2.5.02,6.86-2.21,6.92,4,.05,6.22-4.1,4.02-6.76,4.03-31.33.13-62.66.08-93.99.08,0-.33.02-.67.03-1Z"/>
      <g class="cls-2">
        <path class="cls-41" d="m374.83,16.61c1.84-2.48,4.5-1.59,6.88-1.6,34.01-.03,68.02-.01,102.03-.02,2.72,0,5.5-.37,7.7,1.81.21.54.43,1.08.64,1.62-.06,24.64-.23,49.29-.1,73.93.03,5.2-1.37,7.52-6.99,7.49-34.89-.19-69.79-.14-104.68-.17-1.92,0-3.91.27-5.43-1.37-.02-27.23-.03-54.46-.05-81.69Zm44.99,71.59c.08-1.93.21-3.86.22-5.8q.07-12.82-13.24-12.22c-1.22-.2-1.77.21-1.36,1.49.05,5.49.1,10.98.15,16.48-.25,1.09.16,1.51,1.25,1.25,3.83.06,7.65.11,11.48.17,1.29.41,1.71-.13,1.5-1.37Zm6.99,1.26c4.38-.02,8.75-.04,13.13-.06,1.11.28,1.52-.14,1.25-1.25.01-8.26.03-16.52.04-24.77.3-1.18-.11-1.61-1.29-1.23-4.37,0-8.74,0-13.12,0-1.14-.32-1.55.1-1.26,1.24,0,8.26,0,16.52,0,24.77-.34,1.15.1,1.56,1.24,1.31Zm20.03.02q14.83,1.2,14.83-12.95c0-2.49,0-4.97,0-7.46q0-14.82-14.85-13.73c-2.44,11.38-2.59,22.76.02,34.14Zm-13.77-44.57c-2.57-2.42-4.87-4.41-6.95-6.6-1.56-1.64-2.86-2.41-4.77-.45-5.02,5.13-10.19,10.13-15.2,15.27-2.84,2.91-.39,4.82,1.46,6.93,2.2,2.5,3.71,1.16,5.37-.58,1.71-1.8,3.71-3.38,5.22-5.33,3.29-4.24,6.31-5.47,9.97-.32,3.17,4.47,5.79,2.42,9.4-.36,5.07-3.9,7.07-12.97,16.29-10.53.23.06,1.06-1.12,1.16-1.79.62-4.24,1.52-8.35,3.09-12.4.87-2.24-.12-4.74-3.44-2.79-4.6,2.71-13.28-.95-13.19,9.61.03,3.17-5.59,6.39-8.39,9.34Z"/>
        <path class="cls-34" d="m456.15,109.91c2.8,5.98,5.32,10.95,7.46,16.09,1.13,2.71,5.21,5.19,2.1,8.5-2.34,2.49-12.56-.37-14.28-3.72-2.85-5.51-5.74-11.02-8.11-16.73-1.93-4.64-5.54-4.45-9.3-4.1-4.23.39-9.41-2.11-11.95,3.84-1.48,3.46-3.97,6.64-4.75,10.22-2.32,10.61-9.1,12.51-19.07,10.22,3.42-7.81,6.82-15.58,10.65-24.33-10.15,0-19.47-.01-28.78,0-3.12,0-6.61.19-6.54-4.16.07-4.26,3.55-4.17,6.68-4.17,34.95,0,69.91,0,104.86-.03,3.17,0,6.63-.1,6.63,4.19,0,4.26-3.44,4.22-6.63,4.2-9.34-.05-18.67-.02-28.95-.02Z"/>
        <path class="cls-33" d="m432.61,13.1c-3.87,0-7.75.2-11.59-.08-2.19-.16-4.43-1.05-4.26-4.01.15-2.65,1.88-4.04,4.28-4.09,7.73-.15,15.47-.17,23.2-.05,2.49.04,3.99,1.7,4.09,4.24.11,2.76-1.56,3.98-4.12,4.03-3.87.07-7.74.02-11.6.02,0-.02,0-.04,0-.06Z"/>
        <path class="cls-42" d="m446.83,55.35c0,11.38.01,22.76.02,34.14-2.61-11.38-2.46-22.76-.02-34.14Z"/>
        <path class="cls-43" d="m441.23,63.38c-.43-.41-.86-.82-1.29-1.23,1.18-.38,1.59.05,1.29,1.23Z"/>
        <path class="cls-45" d="m439.94,89.4c.42-.42.83-.83,1.25-1.25.27,1.11-.14,1.52-1.25,1.25Z"/>
        <path class="cls-47" d="m425.58,88.16c.41.44.83.87,1.24,1.31-1.14.26-1.58-.16-1.24-1.31Z"/>
        <path class="cls-46" d="m418.33,89.58c.5-.46,1-.91,1.5-1.37.21,1.23-.21,1.78-1.5,1.37Z"/>
        <path class="cls-44" d="m405.6,88.16c.42.42.83.83,1.25,1.25-1.09.25-1.51-.16-1.25-1.25Z"/>
        <path class="cls-38" d="m406.81,70.19c-.45.5-.9.99-1.36,1.49-.41-1.28.13-1.69,1.36-1.49Z"/>
        <path class="cls-36" d="m426.83,62.15c-.42.41-.84.82-1.26,1.24-.29-1.14.12-1.55,1.26-1.24Z"/>
      </g>
      <g class="cls-2">
        <path class="cls-40" d="m127.22,29.81c-.89,3.37-2.66,7.63-6.37,11.26-16.88,16.52-33.49,33.31-50.19,50.01-5.87,5.87-12.59,11.13-17.44,17.76-11.57,15.81-29.59,19.13-46.13,25.44-2.06.79-4.28.33-6.15-1.42-2.26-2.12.14-3.4.66-4.98,2.84-8.62,5.67-17.25,8.68-25.81,1.2-3.43,3.82-5.93,6.36-8.46,19.81-19.74,39.91-39.2,59.15-59.49,6.4-6.75,13.53-12.72,19.62-19.59,5.69-6.42,13.29-7.06,18.56-4.16,6.37,3.52,13.48,8.91,13.24,19.44Zm-42.77,3.1c-.59.5-1.47,1.15-2.23,1.91-21.72,21.71-43.61,43.26-65.05,65.25-6.06,6.22-6.41,15.4-2.27,19.43,4.47,4.35,16.42,3.81,21.37-1.42,19.92-21.08,40.27-41.72,61.68-61.3,4.09-3.74,5.88-7.54.06-11.84-3.73-2.76-6.71-6.54-10.03-9.85-.92-.91-1.39-2.47-3.53-2.17Zm37.16-5.02c-.09-5.28-8.7-14.37-14.23-15-2.48-.28-14.93,8.61-14.53,11.28,1.13,7.65,10.43,8.74,13.44,15.31.62,1.35,2.08,4.95,4.84,2.66,4.63-3.83,10.03-7.32,10.49-14.25Z"/>
        <path class="cls-37" d="m80.09,44.78c-17.34,17.33-36.15,36.15-53.8,53.8,1.16-5.07,50.5-53.51,53.8-53.8Z"/>
        <path class="cls-35" d="m34.3,100.19c18.42-18.67,36.84-37.34,55.26-56.02-.34-.33-.67-.66-1.01-.99-18.54,18.57-37.08,37.14-55.62,55.7.45.44.91.87,1.36,1.31Z"/>
      </g>
      <g class="cls-2">
        <path class="cls-39" d="m216.08,99.65c-8.82,0-17.64-.02-26.46-.02-.61,0-1.23,0-1.84,0-4.53-.44-4.78-3.56-4.77-7.16.06-24.39.16-48.79-.07-73.18-.05-5.68,2.31-7.02,7.47-7,38.83.14,77.65.15,116.48,0,5.8-.02,7.66,2.1,7.6,7.86-.25,23.85-.31,47.7.03,71.55.09,6.57-2.59,7.91-8.41,7.84-14.4-.17-28.81.17-43.21.31-1.03-.29-1.4.08-1.11,1.11-.05,2.16-.1,4.31-.15,6.47-.17,1.26-.95,2.77,1.26,3.06,14.06-2.87,14.25,9.21,18.37,17.05l-.14.09c-2.76.12-5.51.23-8.27.35-.61-.01-1.23-.02-1.84-.03h-56.58c2.73-5.63,4.86-10.53,7.47-15.17,1.34-2.39,3.58-4.22,6.81-3.6,7.14,1.37,8.64-2.15,7.16-8.26.17-1.19-.2-1.76-1.48-1.27-3.83,0-7.65.01-11.48.02-.61-.01-1.23-.02-1.84-.03-1.05,0-2.1.02-3.16.03-.61,0-1.23,0-1.84.01Zm84.6-75.25c-.39-2.11-2.07-1.3-3.24-1.3-31.87-.02-63.73-.01-95.6.06-1.78,0-3.93-.91-5.27,1.24-.18,19.63-.26,39.27-.61,58.9-.07,3.92,1.58,4.45,4.9,4.44,31.83-.09,63.67-.09,95.5,0,3.29,0,5.01-.45,4.94-4.41-.35-19.64-.44-39.29-.62-58.93Z"/>
        <path class="cls-15" d="m262.9,110.47c-2.21-.28-1.43-1.79-1.26-3.06,1.4.61,1.26,1.86,1.26,3.06Z"/>
        <path class="cls-14" d="m187.78,99.63c.61,0,1.23,0,1.84,0-.61,1.13-1.22,1.15-1.84,0Z"/>
        <path class="cls-17" d="m216.08,99.65c.61,0,1.23,0,1.84-.01-.61,1.19-1.22,1.21-1.84.01Z"/>
        <path class="cls-16" d="m221.08,99.61c.61.01,1.23.02,1.84.03-.63,1.13-1.25,1.09-1.84-.03Z"/>
        <path class="cls-20" d="m234.4,99.63c1.28-.49,1.65.08,1.48,1.27-.49-.42-.99-.85-1.48-1.27Z"/>
        <path class="cls-18" d="m261.79,100.95c-.29-1.03.08-1.4,1.11-1.11.11.85-.26,1.22-1.11,1.11Z"/>
        <path class="cls-19" d="m300.69,24.39c-34.7,0-69.41,0-104.11,0,1.34-2.15,3.49-1.24,5.27-1.24,31.87-.08,63.73-.08,95.6-.06,1.16,0,2.85-.81,3.24,1.3Z"/>
      </g>
    </g>
  </g>
</svg>